<svg xmlns="http://www.w3.org/2000/svg" xmlns:xlink="http://www.w3.org/1999/xlink" width="500" zoomAndPan="magnify" viewBox="0 0 375 374.999991" height="500" preserveAspectRatio="xMidYMid meet" version="1.2"><defs><clipPath id="1872364dbf"><path d="M 57 249 L 317.15625 249 L 317.15625 271.5 L 57 271.5 Z M 57 249 "/></clipPath><clipPath id="ece86f0137"><path d="M 300 249 L 330 249 L 330 271.5 L 300 271.5 Z M 300 249 "/></clipPath><clipPath id="311a718a3b"><path d="M 307.5 249 L 330 249 L 322.5 271.5 L 300 271.5 Z M 307.5 249 "/></clipPath><clipPath id="e173dea732"><path d="M 45 249 L 75 249 L 75 271.5 L 45 271.5 Z M 45 249 "/></clipPath><clipPath id="4dcfb1bfe4"><path d="M 52.5 271.5 L 75 271.5 L 67.5 249 L 45 249 Z M 52.5 271.5 "/></clipPath><clipPath id="101f0a2d2f"><path d="M 59.25 103.5 L 319.40625 103.5 L 319.40625 126 L 59.25 126 Z M 59.25 103.5 "/></clipPath><clipPath id="e4830b96ca"><path d="M 300.445312 103.746094 L 330.503906 103.746094 L 330.503906 126.246094 L 300.445312 126.246094 Z M 300.445312 103.746094 "/></clipPath><clipPath id="c0fba8f9e5"><path d="M 307.945312 103.746094 L 330.445312 103.746094 L 322.945312 126.246094 L 300.445312 126.246094 Z M 307.945312 103.746094 "/></clipPath><clipPath id="1e41618c8b"><path d="M 45.542969 103.746094 L 75.601562 103.746094 L 75.601562 126.246094 L 45.542969 126.246094 Z M 45.542969 103.746094 "/></clipPath><clipPath id="ba4f614bd8"><path d="M 53.101562 126.246094 L 75.601562 126.246094 L 68.101562 103.746094 L 45.601562 103.746094 Z M 53.101562 126.246094 "/></clipPath><clipPath id="5f7ee7310a"><path d="M 37.5 103.5 L 93.75 103.5 L 93.75 131.625 L 37.5 131.625 Z M 37.5 103.5 "/></clipPath><clipPath id="f6a4eaf3d4"><path d="M 37.5 103.5 L 65.625 103.5 L 93.75 117.5625 L 65.625 131.625 L 37.5 131.625 L 65.625 117.5625 Z M 37.5 103.5 "/></clipPath><clipPath id="dfc45c0f08"><path d="M 281.242188 103.5 L 337.5 103.5 L 337.5 131.25 L 281.242188 131.25 Z M 281.242188 103.5 "/></clipPath><clipPath id="abc9bce6b8"><path d="M 337.5 131.25 L 309.375 131.25 L 281.25 117.375 L 309.375 103.5 L 337.5 103.5 L 309.375 117.375 Z M 337.5 131.25 "/></clipPath><clipPath id="c82ada1698"><path d="M 239.226562 126 L 268.589844 126 L 268.589844 147.980469 L 239.226562 147.980469 Z M 239.226562 126 "/></clipPath><clipPath id="9e5c8880e1"><path d="M 246.550781 147.980469 L 261.207031 147.980469 L 268.535156 126 L 239.226562 126 Z M 246.550781 147.980469 "/></clipPath><clipPath id="ab9fa64008"><path d="M 102 126 L 131.367188 126 L 131.367188 147.980469 L 102 147.980469 Z M 102 126 "/></clipPath><clipPath id="f830b83de7"><path d="M 109.328125 147.980469 L 123.980469 147.980469 L 131.308594 126 L 102 126 Z M 109.328125 147.980469 "/></clipPath><clipPath id="fa53d1087a"><path d="M 60 221.226562 L 314.25 221.226562 L 314.25 224.976562 L 60 224.976562 Z M 60 221.226562 "/></clipPath></defs><g id="db83d2a2fa"><g clip-rule="nonzero" clip-path="url(#1872364dbf)"><path style=" stroke:none;fill-rule:nonzero;fill:#ff0000;fill-opacity:1;" d="M 57 249 L 317.15625 249 L 317.15625 271.5 L 57 271.5 Z M 57 249 "/></g><g clip-rule="nonzero" clip-path="url(#ece86f0137)"><g clip-rule="nonzero" clip-path="url(#311a718a3b)"><path style=" stroke:none;fill-rule:nonzero;fill:#ff0000;fill-opacity:1;" d="M 300 249 L 329.96875 249 L 329.96875 271.5 L 300 271.5 Z M 300 249 "/></g></g><g clip-rule="nonzero" clip-path="url(#e173dea732)"><g clip-rule="nonzero" clip-path="url(#4dcfb1bfe4)"><path style=" stroke:none;fill-rule:nonzero;fill:#ff0000;fill-opacity:1;" d="M 75 271.5 L 45.03125 271.5 L 45.03125 249 L 75 249 Z M 75 271.5 "/></g></g><g clip-rule="nonzero" clip-path="url(#101f0a2d2f)"><path style=" stroke:none;fill-rule:nonzero;fill:#ff0000;fill-opacity:1;" d="M 59.25 103.5 L 319.40625 103.5 L 319.40625 126 L 59.25 126 Z M 59.25 103.5 "/></g><g clip-rule="nonzero" clip-path="url(#e4830b96ca)"><g clip-rule="nonzero" clip-path="url(#c0fba8f9e5)"><path style=" stroke:none;fill-rule:nonzero;fill:#ff0000;fill-opacity:1;" d="M 300.445312 103.746094 L 330.414062 103.746094 L 330.414062 126.246094 L 300.445312 126.246094 Z M 300.445312 103.746094 "/></g></g><g clip-rule="nonzero" clip-path="url(#1e41618c8b)"><g clip-rule="nonzero" clip-path="url(#ba4f614bd8)"><path style=" stroke:none;fill-rule:nonzero;fill:#ff0000;fill-opacity:1;" d="M 75.601562 126.246094 L 45.628906 126.246094 L 45.628906 103.746094 L 75.601562 103.746094 Z M 75.601562 126.246094 "/></g></g><g clip-rule="nonzero" clip-path="url(#5f7ee7310a)"><g clip-rule="nonzero" clip-path="url(#f6a4eaf3d4)"><path style=" stroke:none;fill-rule:nonzero;fill:#ff0000;fill-opacity:1;" d="M 37.5 103.5 L 93.75 103.5 L 93.75 131.625 L 37.5 131.625 Z M 37.5 103.5 "/></g></g><g clip-rule="nonzero" clip-path="url(#dfc45c0f08)"><g clip-rule="nonzero" clip-path="url(#abc9bce6b8)"><path style=" stroke:none;fill-rule:nonzero;fill:#ff0000;fill-opacity:1;" d="M 337.5 131.25 L 281.242188 131.25 L 281.242188 103.5 L 337.5 103.5 Z M 337.5 131.25 "/></g></g><g clip-rule="nonzero" clip-path="url(#c82ada1698)"><g clip-rule="nonzero" clip-path="url(#9e5c8880e1)"><path style=" stroke:none;fill-rule:nonzero;fill:#ff0000;fill-opacity:1;" d="M 239.226562 126 L 268.503906 126 L 268.503906 147.980469 L 239.226562 147.980469 Z M 239.226562 126 "/></g></g><g clip-rule="nonzero" clip-path="url(#ab9fa64008)"><g clip-rule="nonzero" clip-path="url(#f830b83de7)"><path style=" stroke:none;fill-rule:nonzero;fill:#ff0000;fill-opacity:1;" d="M 102 126 L 131.28125 126 L 131.28125 147.980469 L 102 147.980469 Z M 102 126 "/></g></g><g style="fill:#ff0000;fill-opacity:1;"><g transform="translate(69.855468, 217.762339)"><path style="stroke:none" d="M 2.453125 0 L 2.453125 -0.078125 C 3.804688 -0.867188 4.921875 -1.601562 5.796875 -2.28125 C 6.679688 -2.96875 7.363281 -3.847656 7.84375 -4.921875 C 8.320312 -5.992188 8.660156 -7.472656 8.859375 -9.359375 C 9.054688 -11.253906 9.179688 -13.828125 9.234375 -17.078125 C 9.296875 -20.328125 9.328125 -24.492188 9.328125 -29.578125 L 9.328125 -29.75 C 9.328125 -34.832031 9.296875 -39 9.234375 -42.25 C 9.179688 -45.5 9.054688 -48.066406 8.859375 -49.953125 C 8.660156 -51.847656 8.320312 -53.332031 7.84375 -54.40625 C 7.363281 -55.476562 6.679688 -56.351562 5.796875 -57.03125 C 4.921875 -57.707031 3.804688 -58.441406 2.453125 -59.234375 L 2.453125 -59.328125 L 33.734375 -59.328125 C 39.546875 -59.328125 44.457031 -58.023438 48.46875 -55.421875 C 52.488281 -52.828125 55.53125 -49.28125 57.59375 -44.78125 C 59.65625 -40.289062 60.6875 -35.195312 60.6875 -29.5 C 60.6875 -23.84375 59.695312 -18.796875 57.71875 -14.359375 C 55.738281 -9.929688 52.753906 -6.429688 48.765625 -3.859375 C 44.785156 -1.285156 39.773438 0 33.734375 0 Z M 17.375 -7.125 L 33.21875 -7.125 C 39.269531 -7.125 44.015625 -9.097656 47.453125 -13.046875 C 50.898438 -17.003906 52.625 -22.488281 52.625 -29.5 C 52.625 -36.726562 50.898438 -42.316406 47.453125 -46.265625 C 44.015625 -50.222656 39.269531 -52.203125 33.21875 -52.203125 L 17.375 -52.203125 Z M 17.375 -7.125 "/></g></g><g style="fill:#ff0000;fill-opacity:1;"><g transform="translate(134.604419, 217.762339)"><path style="stroke:none" d="M 31.4375 0.84375 C 23.8125 0.84375 17.992188 -1.316406 13.984375 -5.640625 C 9.972656 -9.960938 7.96875 -16.050781 7.96875 -23.90625 L 7.96875 -29.75 C 7.96875 -34.832031 7.9375 -39 7.875 -42.25 C 7.820312 -45.5 7.695312 -48.066406 7.5 -49.953125 C 7.300781 -51.847656 6.960938 -53.332031 6.484375 -54.40625 C 6.003906 -55.476562 5.328125 -56.351562 4.453125 -57.03125 C 3.578125 -57.707031 2.460938 -58.441406 1.109375 -59.234375 L 1.109375 -59.328125 L 22.875 -59.328125 L 22.875 -59.234375 C 21.519531 -58.441406 20.40625 -57.707031 19.53125 -57.03125 C 18.65625 -56.351562 17.976562 -55.476562 17.5 -54.40625 C 17.019531 -53.332031 16.679688 -51.847656 16.484375 -49.953125 C 16.285156 -48.066406 16.15625 -45.5 16.09375 -42.25 C 16.039062 -39 16.015625 -34.832031 16.015625 -29.75 L 16.015625 -23.140625 C 16.015625 -17.878906 17.328125 -13.78125 19.953125 -10.84375 C 22.585938 -7.90625 26.414062 -6.4375 31.4375 -6.4375 C 36.46875 -6.4375 40.296875 -7.90625 42.921875 -10.84375 C 45.546875 -13.78125 46.859375 -17.878906 46.859375 -23.140625 L 46.859375 -29.75 C 46.859375 -34.832031 46.832031 -39 46.78125 -42.25 C 46.726562 -45.5 46.601562 -48.066406 46.40625 -49.953125 C 46.207031 -51.847656 45.863281 -53.332031 45.375 -54.40625 C 44.894531 -55.476562 44.21875 -56.351562 43.34375 -57.03125 C 42.46875 -57.707031 41.328125 -58.441406 39.921875 -59.234375 L 39.921875 -59.328125 L 61.78125 -59.328125 L 61.78125 -59.234375 C 60.425781 -58.441406 59.3125 -57.707031 58.4375 -57.03125 C 57.5625 -56.351562 56.882812 -55.476562 56.40625 -54.40625 C 55.925781 -53.332031 55.585938 -51.847656 55.390625 -49.953125 C 55.191406 -48.066406 55.0625 -45.5 55 -42.25 C 54.945312 -39 54.921875 -34.832031 54.921875 -29.75 L 54.921875 -23.90625 C 54.921875 -16.050781 52.898438 -9.960938 48.859375 -5.640625 C 44.816406 -1.316406 39.007812 0.84375 31.4375 0.84375 Z M 31.4375 0.84375 "/></g></g><g style="fill:#ff0000;fill-opacity:1;"><g transform="translate(197.40412, 217.762339)"><path style="stroke:none" d="M 1.109375 0 L 34.234375 -52.203125 L 20.84375 -52.203125 C 17.789062 -52.203125 15.40625 -52.117188 13.6875 -51.953125 C 11.96875 -51.785156 10.566406 -51.316406 9.484375 -50.546875 C 8.410156 -49.785156 7.363281 -48.515625 6.34375 -46.734375 C 5.332031 -44.953125 4.066406 -42.453125 2.546875 -39.234375 L 2.453125 -39.234375 L 6.6875 -59.328125 L 47.96875 -59.328125 L 14.828125 -7.125 L 29.234375 -7.125 C 32.347656 -7.125 34.789062 -7.207031 36.5625 -7.375 C 38.34375 -7.539062 39.769531 -8.003906 40.84375 -8.765625 C 41.914062 -9.535156 42.960938 -10.804688 43.984375 -12.578125 C 45.003906 -14.359375 46.304688 -16.890625 47.890625 -20.171875 L 47.96875 -20.171875 L 43.734375 0 Z M 1.109375 0 "/></g></g><g style="fill:#ff0000;fill-opacity:1;"><g transform="translate(246.98283, 217.762339)"><path style="stroke:none" d="M 40.9375 -16.609375 C 40.03125 -18.984375 39.25 -20.832031 38.59375 -22.15625 C 37.945312 -23.488281 37.226562 -24.4375 36.4375 -25 C 35.644531 -25.5625 34.570312 -25.898438 33.21875 -26.015625 C 31.863281 -26.128906 29.972656 -26.1875 27.546875 -26.1875 L 17.375 -26.1875 L 17.375 -7.125 L 33.3125 -7.125 C 36.363281 -7.125 38.875 -7.164062 40.84375 -7.25 C 42.820312 -7.332031 44.445312 -7.570312 45.71875 -7.96875 C 46.988281 -8.363281 48.0625 -9.007812 48.9375 -9.90625 C 49.8125 -10.8125 50.671875 -12.097656 51.515625 -13.765625 C 52.367188 -15.429688 53.390625 -17.566406 54.578125 -20.171875 L 54.65625 -20.171875 L 50.421875 0 L 2.453125 0 L 2.453125 -0.078125 C 3.804688 -0.929688 4.921875 -1.707031 5.796875 -2.40625 C 6.679688 -3.113281 7.363281 -3.988281 7.84375 -5.03125 C 8.320312 -6.082031 8.660156 -7.566406 8.859375 -9.484375 C 9.054688 -11.410156 9.179688 -13.984375 9.234375 -17.203125 C 9.296875 -20.421875 9.328125 -24.546875 9.328125 -29.578125 L 9.328125 -29.75 C 9.328125 -34.832031 9.296875 -39 9.234375 -42.25 C 9.179688 -45.5 9.054688 -48.082031 8.859375 -50 C 8.660156 -51.925781 8.320312 -53.410156 7.84375 -54.453125 C 7.363281 -55.492188 6.679688 -56.351562 5.796875 -57.03125 C 4.921875 -57.707031 3.804688 -58.441406 2.453125 -59.234375 L 2.453125 -59.328125 L 50.421875 -59.328125 L 54.65625 -39.234375 L 54.578125 -39.234375 C 53.390625 -41.835938 52.367188 -43.957031 51.515625 -45.59375 C 50.671875 -47.226562 49.8125 -48.5 48.9375 -49.40625 C 48.0625 -50.3125 46.988281 -50.960938 45.71875 -51.359375 C 44.445312 -51.753906 42.820312 -51.992188 40.84375 -52.078125 C 38.875 -52.160156 36.363281 -52.203125 33.3125 -52.203125 L 17.375 -52.203125 L 17.375 -33.21875 L 27.546875 -33.21875 C 29.972656 -33.21875 31.863281 -33.273438 33.21875 -33.390625 C 34.570312 -33.503906 35.644531 -33.84375 36.4375 -34.40625 C 37.226562 -34.96875 37.945312 -35.910156 38.59375 -37.234375 C 39.25 -38.566406 40.03125 -40.421875 40.9375 -42.796875 L 41.015625 -42.796875 L 41.015625 -16.609375 Z M 24.40625 -65.171875 L 34.40625 -77.46875 L 44.578125 -77.46875 L 32.375 -65.171875 Z M 24.40625 -65.171875 "/></g></g><g clip-rule="nonzero" clip-path="url(#fa53d1087a)"><path style=" stroke:none;fill-rule:nonzero;fill:#ff0000;fill-opacity:1;" d="M 60 221.226562 L 314.253906 221.226562 L 314.253906 224.976562 L 60 224.976562 Z M 60 221.226562 "/></g><g style="fill:#ff0000;fill-opacity:1;"><g transform="translate(230.252641, 244.168842)"><path style="stroke:none" d="M 8.625 0 L 4.84375 -12.328125 L 4.75 -12.328125 C 4.882812 -9.816406 4.953125 -8.144531 4.953125 -7.3125 L 4.953125 0 L 1.984375 0 L 1.984375 -15.703125 L 6.515625 -15.703125 L 10.234375 -3.703125 L 10.296875 -3.703125 L 14.234375 -15.703125 L 18.765625 -15.703125 L 18.765625 0 L 15.65625 0 L 15.65625 -7.4375 C 15.65625 -7.78125 15.660156 -8.179688 15.671875 -8.640625 C 15.679688 -9.097656 15.734375 -10.316406 15.828125 -12.296875 L 15.734375 -12.296875 L 11.671875 0 Z M 8.625 0 "/></g></g><g style="fill:#ff0000;fill-opacity:1;"><g transform="translate(250.992127, 244.168842)"><path style="stroke:none" d="M 16.234375 -7.875 C 16.234375 -5.269531 15.585938 -3.269531 14.296875 -1.875 C 13.003906 -0.476562 11.15625 0.21875 8.75 0.21875 C 6.34375 0.21875 4.492188 -0.476562 3.203125 -1.875 C 1.921875 -3.269531 1.28125 -5.273438 1.28125 -7.890625 C 1.28125 -10.503906 1.925781 -12.5 3.21875 -13.875 C 4.507812 -15.257812 6.363281 -15.953125 8.78125 -15.953125 C 11.1875 -15.953125 13.03125 -15.253906 14.3125 -13.859375 C 15.59375 -12.472656 16.234375 -10.476562 16.234375 -7.875 Z M 4.765625 -7.875 C 4.765625 -6.125 5.097656 -4.800781 5.765625 -3.90625 C 6.429688 -3.019531 7.425781 -2.578125 8.75 -2.578125 C 11.40625 -2.578125 12.734375 -4.34375 12.734375 -7.875 C 12.734375 -11.414062 11.414062 -13.1875 8.78125 -13.1875 C 7.457031 -13.1875 6.457031 -12.738281 5.78125 -11.84375 C 5.101562 -10.945312 4.765625 -9.625 4.765625 -7.875 Z M 4.765625 -7.875 "/></g></g><g style="fill:#ff0000;fill-opacity:1;"><g transform="translate(268.498782, 244.168842)"><path style="stroke:none" d="M 8.03125 0 L 4.703125 0 L 4.703125 -12.9375 L 0.4375 -12.9375 L 0.4375 -15.703125 L 12.296875 -15.703125 L 12.296875 -12.9375 L 8.03125 -12.9375 Z M 8.03125 0 "/></g></g><g style="fill:#ff0000;fill-opacity:1;"><g transform="translate(281.236754, 244.168842)"><path style="stroke:none" d="M 16.234375 -7.875 C 16.234375 -5.269531 15.585938 -3.269531 14.296875 -1.875 C 13.003906 -0.476562 11.15625 0.21875 8.75 0.21875 C 6.34375 0.21875 4.492188 -0.476562 3.203125 -1.875 C 1.921875 -3.269531 1.28125 -5.273438 1.28125 -7.890625 C 1.28125 -10.503906 1.925781 -12.5 3.21875 -13.875 C 4.507812 -15.257812 6.363281 -15.953125 8.78125 -15.953125 C 11.1875 -15.953125 13.03125 -15.253906 14.3125 -13.859375 C 15.59375 -12.472656 16.234375 -10.476562 16.234375 -7.875 Z M 4.765625 -7.875 C 4.765625 -6.125 5.097656 -4.800781 5.765625 -3.90625 C 6.429688 -3.019531 7.425781 -2.578125 8.75 -2.578125 C 11.40625 -2.578125 12.734375 -4.34375 12.734375 -7.875 C 12.734375 -11.414062 11.414062 -13.1875 8.78125 -13.1875 C 7.457031 -13.1875 6.457031 -12.738281 5.78125 -11.84375 C 5.101562 -10.945312 4.765625 -9.625 4.765625 -7.875 Z M 4.765625 -7.875 "/></g></g><g style="fill:#ff0000;fill-opacity:1;"><g transform="translate(298.743409, 244.168842)"><path style="stroke:none" d="M 5.3125 -8.734375 L 6.375 -8.734375 C 7.425781 -8.734375 8.203125 -8.90625 8.703125 -9.25 C 9.210938 -9.601562 9.46875 -10.160156 9.46875 -10.921875 C 9.46875 -11.660156 9.207031 -12.1875 8.6875 -12.5 C 8.175781 -12.820312 7.382812 -12.984375 6.3125 -12.984375 L 5.3125 -12.984375 Z M 5.3125 -6.03125 L 5.3125 0 L 1.984375 0 L 1.984375 -15.703125 L 6.546875 -15.703125 C 8.679688 -15.703125 10.257812 -15.3125 11.28125 -14.53125 C 12.3125 -13.757812 12.828125 -12.582031 12.828125 -11 C 12.828125 -10.070312 12.570312 -9.25 12.0625 -8.53125 C 11.550781 -7.8125 10.832031 -7.25 9.90625 -6.84375 C 12.269531 -3.3125 13.8125 -1.03125 14.53125 0 L 10.828125 0 L 7.078125 -6.03125 Z M 5.3125 -6.03125 "/></g></g><g style="fill:#ff0000;fill-opacity:1;"><g transform="translate(313.264267, 244.168842)"><path style="stroke:none" d="M 11.25 -4.359375 C 11.25 -2.941406 10.738281 -1.820312 9.71875 -1 C 8.695312 -0.1875 7.273438 0.21875 5.453125 0.21875 C 3.773438 0.21875 2.296875 -0.0976562 1.015625 -0.734375 L 1.015625 -3.828125 C 2.066406 -3.347656 2.957031 -3.007812 3.6875 -2.8125 C 4.425781 -2.625 5.101562 -2.53125 5.71875 -2.53125 C 6.445312 -2.53125 7.003906 -2.671875 7.390625 -2.953125 C 7.785156 -3.234375 7.984375 -3.648438 7.984375 -4.203125 C 7.984375 -4.503906 7.894531 -4.773438 7.71875 -5.015625 C 7.550781 -5.253906 7.300781 -5.484375 6.96875 -5.703125 C 6.632812 -5.929688 5.957031 -6.289062 4.9375 -6.78125 C 3.96875 -7.226562 3.242188 -7.660156 2.765625 -8.078125 C 2.285156 -8.492188 1.898438 -8.976562 1.609375 -9.53125 C 1.328125 -10.082031 1.1875 -10.726562 1.1875 -11.46875 C 1.1875 -12.851562 1.65625 -13.941406 2.59375 -14.734375 C 3.539062 -15.535156 4.847656 -15.9375 6.515625 -15.9375 C 7.328125 -15.9375 8.101562 -15.835938 8.84375 -15.640625 C 9.582031 -15.441406 10.359375 -15.171875 11.171875 -14.828125 L 10.09375 -12.234375 C 9.257812 -12.578125 8.566406 -12.816406 8.015625 -12.953125 C 7.472656 -13.085938 6.9375 -13.15625 6.40625 -13.15625 C 5.769531 -13.15625 5.285156 -13.007812 4.953125 -12.71875 C 4.617188 -12.425781 4.453125 -12.039062 4.453125 -11.5625 C 4.453125 -11.269531 4.519531 -11.015625 4.65625 -10.796875 C 4.789062 -10.578125 5.003906 -10.363281 5.296875 -10.15625 C 5.597656 -9.957031 6.300781 -9.59375 7.40625 -9.0625 C 8.875 -8.363281 9.878906 -7.660156 10.421875 -6.953125 C 10.972656 -6.242188 11.25 -5.378906 11.25 -4.359375 Z M 11.25 -4.359375 "/></g></g></g></svg>